<svg width="64" height="64" viewBox="0 0 64 64" fill="none" xmlns="http://www.w3.org/2000/svg">
<rect width="64" height="64" rx="10" fill="#EBE9EF"/>
<g clip-path="url(#clip0_409_170)">
<path d="M19.582 37.378C19.582 39.955 17.4804 42.0598 14.9031 42.0598C12.3258 42.0598 10.2217 39.955 10.2217 37.378C10.2217 34.8011 12.3265 32.6963 14.9034 32.6963H19.5824L19.582 37.378ZM21.9407 37.378C21.9407 34.8011 24.0455 32.6963 26.6224 32.6963C29.1994 32.6963 31.3042 34.8007 31.3042 37.378V49.0974C31.3042 51.6743 29.1997 53.7791 26.6224 53.7791C24.0455 53.7791 21.9407 51.6743 21.9407 49.0974V37.378Z" fill="#DE1C59"/>
<path d="M26.6224 18.582C24.0455 18.582 21.9407 16.4804 21.9407 13.9031C21.9407 11.3258 24.0455 9.22168 26.6224 9.22168C29.1994 9.22168 31.3042 11.3265 31.3042 13.9034V18.5824L26.6224 18.582ZM26.6224 20.9407C29.1994 20.9407 31.3042 23.0455 31.3042 25.6224C31.3042 28.1994 29.1997 30.3042 26.6224 30.3042H14.9031C12.3261 30.3042 10.2217 28.1997 10.2217 25.6224C10.2217 23.0455 12.3265 20.9407 14.9034 20.9407H26.6224Z" fill="#35C5F0"/>
<path d="M45.4184 25.6224C45.4184 23.0455 47.5201 20.9407 50.0974 20.9407C52.6747 20.9407 54.7791 23.0455 54.7791 25.6224C54.7791 28.1994 52.6743 30.3042 50.0974 30.3042H45.4184V25.6224ZM43.0598 25.6224C43.0598 28.1994 40.955 30.3042 38.378 30.3042C35.8011 30.3042 33.6963 28.1997 33.6963 25.6224V13.9031C33.6963 11.3261 35.8007 9.22168 38.378 9.22168C40.955 9.22168 43.0598 11.3265 43.0598 13.9034V25.6224Z" fill="#2EB57D"/>
<path d="M38.378 44.4184C40.955 44.4184 43.0598 46.5201 43.0598 49.0974C43.0598 51.6747 40.955 53.7791 38.378 53.7791C35.8011 53.7791 33.6963 51.6743 33.6963 49.0974V44.4184H38.378ZM38.378 42.0598C35.8011 42.0598 33.6963 39.955 33.6963 37.378C33.6963 34.8011 35.8007 32.6963 38.378 32.6963H50.0974C52.6743 32.6963 54.7791 34.8007 54.7791 37.378C54.7791 39.955 52.6743 42.0598 50.0974 42.0598H38.378Z" fill="#EBB02E"/>
</g>
<defs>
<clipPath id="clip0_409_170">
<rect width="45" height="45" fill="white" transform="translate(10 9)"/>
</clipPath>
</defs>
</svg>
