<svg width="64" height="64" viewBox="0 0 64 64" fill="none" xmlns="http://www.w3.org/2000/svg">
<g clip-path="url(#clip0_297_154)">
<g clip-path="url(#clip1_297_154)">
<path d="M52.4444 0H11.5556C5.1736 0 0 5.1736 0 11.5556V52.4444C0 58.8264 5.1736 64 11.5556 64H52.4444C58.8264 64 64 58.8264 64 52.4444V11.5556C64 5.1736 58.8264 0 52.4444 0Z" fill="#05472C"/>
<mask id="mask0_297_154" style="mask-type:luminance" maskUnits="userSpaceOnUse" x="15" y="15" width="34" height="34">
<path d="M48.7113 15.2891H15.3779V48.6224H48.7113V15.2891Z" fill="white"/>
</mask>
<g mask="url(#mask0_297_154)">
<path d="M39.6016 45.7999C39.6016 44.2833 40.7811 42.9775 42.4239 42.9775C44.1088 42.9775 45.2883 44.2833 45.2883 45.7999C45.2883 47.3166 44.1088 48.6223 42.466 48.6223C40.7811 48.6223 39.6016 47.3166 39.6016 45.7999Z" fill="#B3D334"/>
<path d="M24.3476 21.8339C24.3476 19.5695 26.4855 17.7605 29.2276 17.7605C32.8065 17.7605 34.9052 19.4339 36.1139 27.9859H36.8575L37.9728 16.3197C30.0716 13.5311 20.1717 16.4127 20.0323 24.8254C20.0323 33.8887 34.4676 33.8837 34.4676 42.1619C34.4676 44.5787 32.3294 46.252 29.9128 46.252C23.541 46.252 22.0307 40.9068 21.7055 35.3294H20.9151L18.8237 45.8337C18.8237 45.8337 23.5645 48.6224 28.6772 48.6224C34.8124 48.5295 38.9026 44.0211 38.9954 39.2803C38.9954 30.1704 24.3476 28.2945 24.3476 21.8339Z" fill="white"/>
</g>
</g>
</g>
<defs>
<clipPath id="clip0_297_154">
<rect width="64" height="64" rx="15" fill="white"/>
</clipPath>
<clipPath id="clip1_297_154">
<rect width="64" height="64" fill="white"/>
</clipPath>
</defs>
</svg>
