<svg width="113" height="42" viewBox="0 0 113 42" fill="none" xmlns="http://www.w3.org/2000/svg">
<g id="Group 1012">
<g id="Open Ledger">
<path id="Vector" d="M107.041 36.574V26.6886H109.093L109.288 27.5482H109.386C109.763 26.9751 110.363 26.6886 111.183 26.6886H113V28.9548H111.359C110.07 28.9548 109.425 29.5995 109.425 30.8889V36.574H107.041Z" fill="#543F3A"/>
<path id="Vector_2" d="M100.612 36.7694C99.6611 36.7694 98.8015 36.548 98.0331 36.1051C97.2777 35.6623 96.6786 35.0502 96.2358 34.2687C95.806 33.4873 95.5911 32.6081 95.5911 31.6313C95.5911 30.6545 95.806 29.7753 96.2358 28.9939C96.6786 28.2124 97.2777 27.6003 98.0331 27.1575C98.8015 26.7146 99.6611 26.4932 100.612 26.4932C101.524 26.4932 102.344 26.7081 103.073 27.1379C103.816 27.5547 104.395 28.1408 104.812 28.8962C105.242 29.6516 105.457 30.4917 105.457 31.4164C105.457 31.8202 105.424 32.1523 105.359 32.4128H97.9745C98.0526 33.103 98.3392 33.6696 98.8341 34.1124C99.329 34.5552 99.9216 34.7767 100.612 34.7767C101.12 34.7767 101.563 34.6725 101.94 34.4641C102.318 34.2427 102.592 33.9822 102.761 33.6826H105.203C104.929 34.5031 104.395 35.226 103.601 35.8512C102.82 36.4633 101.823 36.7694 100.612 36.7694ZM103.093 30.8108C103.028 30.1335 102.767 29.5735 102.312 29.1306C101.856 28.6878 101.289 28.4664 100.612 28.4664C99.9086 28.4664 99.316 28.6878 98.8341 29.1306C98.3652 29.5735 98.0787 30.1335 97.9745 30.8108H103.093Z" fill="#543F3A"/>
<path id="Vector_3" d="M89.2684 40.6766C88.2265 40.6766 87.3538 40.4813 86.6505 40.0906C85.9602 39.7128 85.4458 39.244 85.1071 38.6839C84.7815 38.1239 84.6057 37.5834 84.5797 37.0624H87.0022C87.0543 37.4531 87.2692 37.7983 87.6469 38.0978C88.0376 38.4104 88.5781 38.5667 89.2684 38.5667C89.9847 38.5667 90.5578 38.3583 90.9876 37.9416C91.4174 37.5378 91.6323 36.9973 91.6323 36.32V34.9329H91.5346C91.2481 35.2455 90.8639 35.506 90.382 35.7144C89.9001 35.9098 89.3661 36.0074 88.78 36.0074C87.9334 36.0074 87.165 35.8056 86.4747 35.4018C85.7974 34.9981 85.2634 34.438 84.8727 33.7217C84.482 32.9923 84.2866 32.1653 84.2866 31.2406C84.2866 30.3289 84.482 29.5149 84.8727 28.7985C85.2634 28.0692 85.7974 27.5026 86.4747 27.0989C87.165 26.6951 87.9334 26.4932 88.78 26.4932C89.4182 26.4932 89.9782 26.6039 90.4601 26.8254C90.942 27.0468 91.3393 27.3593 91.6518 27.7631H91.7495L91.9449 26.6886H94.0157V36.3396C94.0157 37.655 93.5924 38.7035 92.7459 39.4849C91.8993 40.2794 90.7401 40.6766 89.2684 40.6766ZM89.1512 33.878C89.8545 33.878 90.4406 33.637 90.9095 33.1551C91.3914 32.6602 91.6323 32.022 91.6323 31.2406C91.6323 30.4721 91.3914 29.847 90.9095 29.3651C90.4406 28.8702 89.8545 28.6227 89.1512 28.6227C88.4479 28.6227 87.8618 28.8702 87.3929 29.3651C86.924 29.847 86.6896 30.4721 86.6896 31.2406C86.6896 32.022 86.924 32.6602 87.3929 33.1551C87.8618 33.637 88.4479 33.878 89.1512 33.878Z" fill="#543F3A"/>
<path id="Vector_4" d="M77.2676 36.7694C76.421 36.7694 75.6461 36.5545 74.9428 36.1247C74.2525 35.6949 73.7055 35.0892 73.3017 34.3078C72.898 33.5263 72.6961 32.6342 72.6961 31.6313C72.6961 30.6284 72.898 29.7363 73.3017 28.9548C73.7055 28.1734 74.2525 27.5677 74.9428 27.1379C75.6461 26.7081 76.421 26.4932 77.2676 26.4932C77.9058 26.4932 78.4659 26.6105 78.9477 26.8449C79.4427 27.0793 79.8269 27.3789 80.1004 27.7436H80.1981V22.8985H82.601V36.574H80.5302L80.3348 35.4409H80.2371C79.9246 35.8446 79.5143 36.1703 79.0064 36.4177C78.5114 36.6522 77.9319 36.7694 77.2676 36.7694ZM77.6583 34.5618C78.1272 34.5618 78.5505 34.4445 78.9282 34.2101C79.3189 33.9626 79.625 33.6175 79.8464 33.1747C80.0809 32.7319 80.1981 32.2174 80.1981 31.6313C80.1981 30.7587 79.9506 30.0554 79.4557 29.5214C78.9738 28.9874 78.3747 28.7204 77.6583 28.7204C76.929 28.7204 76.3168 28.9874 75.8219 29.5214C75.34 30.0554 75.0991 30.7587 75.0991 31.6313C75.0991 32.5039 75.34 33.2137 75.8219 33.7608C76.3168 34.2948 76.929 34.5618 77.6583 34.5618Z" fill="#543F3A"/>
<path id="Vector_5" d="M66.7941 36.7694C65.8433 36.7694 64.9837 36.548 64.2153 36.1051C63.4599 35.6623 62.8608 35.0502 62.418 34.2687C61.9882 33.4873 61.7733 32.6081 61.7733 31.6313C61.7733 30.6545 61.9882 29.7753 62.418 28.9939C62.8608 28.2124 63.4599 27.6003 64.2153 27.1575C64.9837 26.7146 65.8433 26.4932 66.7941 26.4932C67.7058 26.4932 68.5263 26.7081 69.2557 27.1379C69.9981 27.5547 70.5776 28.1408 70.9944 28.8962C71.4242 29.6516 71.6391 30.4917 71.6391 31.4164C71.6391 31.8202 71.6066 32.1523 71.5414 32.4128H64.1567C64.2348 33.103 64.5214 33.6696 65.0163 34.1124C65.5112 34.5552 66.1038 34.7767 66.7941 34.7767C67.302 34.7767 67.7449 34.6725 68.1226 34.4641C68.5003 34.2427 68.7738 33.9822 68.9431 33.6826H71.3852C71.1116 34.5031 70.5776 35.226 69.7832 35.8512C69.0017 36.4633 68.0054 36.7694 66.7941 36.7694ZM69.2752 30.8108C69.2101 30.1335 68.9496 29.5735 68.4938 29.1306C68.0379 28.6878 67.4714 28.4664 66.7941 28.4664C66.0908 28.4664 65.4982 28.6878 65.0163 29.1306C64.5474 29.5735 64.2609 30.1335 64.1567 30.8108H69.2752Z" fill="#543F3A"/>
<path id="Vector_6" d="M61.494 36.574H52.5463V22.8985H55.0861V34.132H61.494V36.574Z" fill="#543F3A"/>
<path id="Vector_7" d="M89.2785 18.9681V9.08271H91.3298L91.5252 10.04H91.6229C91.8703 9.74043 92.2415 9.47344 92.7364 9.239C93.2314 9.00456 93.8109 8.88735 94.4752 8.88735C95.2306 8.88735 95.9013 9.06317 96.4874 9.41483C97.0865 9.75346 97.5489 10.2354 97.8745 10.8605C98.2131 11.4857 98.3825 12.2085 98.3825 13.0291V18.9681H95.9795V13.3416C95.9795 12.7035 95.7776 12.1825 95.3739 11.7787C94.9831 11.362 94.4817 11.1536 93.8696 11.1536C93.2444 11.1536 92.7169 11.362 92.2871 11.7787C91.8703 12.1955 91.6619 12.7165 91.6619 13.3416V18.9681H89.2785Z" fill="#543F3A"/>
<path id="Vector_8" d="M82.849 19.1635C81.8983 19.1635 81.0387 18.9421 80.2702 18.4992C79.5148 18.0564 78.9157 17.4443 78.4729 16.6628C78.0431 15.8814 77.8282 15.0022 77.8282 14.0254C77.8282 13.0486 78.0431 12.1695 78.4729 11.388C78.9157 10.6065 79.5148 9.99441 80.2702 9.55158C81.0387 9.10876 81.8983 8.88735 82.849 8.88735C83.7607 8.88735 84.5813 9.10225 85.3106 9.53205C86.053 9.94882 86.6326 10.5349 87.0494 11.2903C87.4792 12.0457 87.6941 12.8858 87.6941 13.8105C87.6941 14.2143 87.6615 14.5464 87.5964 14.8069H80.2116C80.2898 15.4972 80.5763 16.0637 81.0712 16.5065C81.5661 16.9494 82.1587 17.1708 82.849 17.1708C83.357 17.1708 83.7998 17.0666 84.1775 16.8582C84.5552 16.6368 84.8287 16.3763 84.998 16.0767H87.4401C87.1666 16.8973 86.6326 17.6201 85.8381 18.2453C85.0566 18.8574 84.0603 19.1635 82.849 19.1635ZM85.3302 13.2049C85.265 12.5276 85.0045 11.9676 84.5487 11.5248C84.0929 11.0819 83.5263 10.8605 82.849 10.8605C82.1457 10.8605 81.5531 11.0819 81.0712 11.5248C80.6024 11.9676 80.3158 12.5276 80.2116 13.2049H85.3302Z" fill="#543F3A"/>
<path id="Vector_9" d="M66.8796 22.8754V9.08271H68.931L69.1263 10.1963H69.224C69.5366 9.79253 69.9403 9.47344 70.4353 9.239C70.9432 9.00456 71.5293 8.88735 72.1935 8.88735C73.0401 8.88735 73.8085 9.10225 74.4988 9.53205C75.2021 9.96185 75.7557 10.5675 76.1594 11.3489C76.5632 12.1304 76.765 13.0225 76.765 14.0254C76.765 15.0283 76.5632 15.9204 76.1594 16.7019C75.7557 17.4834 75.2021 18.089 74.4988 18.5188C73.8085 18.9486 73.0401 19.1635 72.1935 19.1635C71.5553 19.1635 70.9953 19.0528 70.5134 18.8314C70.0315 18.5969 69.6473 18.3039 69.3608 17.9522H69.2631V22.8754H66.8796ZM71.8223 16.9559C72.5387 16.9559 73.1378 16.6889 73.6197 16.1549C74.1146 15.6079 74.3621 14.898 74.3621 14.0254C74.3621 13.1528 74.1146 12.4495 73.6197 11.9155C73.1378 11.3815 72.5387 11.1145 71.8223 11.1145C71.093 11.1145 70.4808 11.3815 69.9859 11.9155C69.504 12.4495 69.2631 13.1528 69.2631 14.0254C69.2631 14.898 69.504 15.6079 69.9859 16.1549C70.4808 16.6889 71.093 16.9559 71.8223 16.9559Z" fill="#543F3A"/>
<path id="Vector_10" d="M58.5636 19.1635C57.3523 19.1635 56.2387 18.8639 55.2228 18.2648C54.22 17.6657 53.4255 16.8321 52.8394 15.7642C52.2533 14.6962 51.9603 13.4849 51.9603 12.1304C51.9603 10.7759 52.2533 9.56462 52.8394 8.49663C53.4255 7.42864 54.22 6.59509 55.2228 5.99597C56.2387 5.39686 57.3523 5.0973 58.5636 5.0973C59.7748 5.0973 60.8819 5.39686 61.8847 5.99597C62.9006 6.59509 63.7016 7.42864 64.2877 8.49663C64.8738 9.56462 65.1669 10.7759 65.1669 12.1304C65.1669 13.4849 64.8738 14.6962 64.2877 15.7642C63.7016 16.8321 62.9006 17.6657 61.8847 18.2648C60.8819 18.8639 59.7748 19.1635 58.5636 19.1635ZM58.5636 16.7214C59.3059 16.7214 59.9897 16.5326 60.6149 16.1549C61.24 15.7642 61.7285 15.2237 62.0801 14.5334C62.4448 13.8301 62.6271 13.0291 62.6271 12.1304C62.6271 11.2317 62.4448 10.4372 62.0801 9.74696C61.7285 9.04365 61.24 8.50314 60.6149 8.12544C59.9897 7.73471 59.3059 7.53934 58.5636 7.53934C57.8212 7.53934 57.1374 7.73471 56.5122 8.12544C55.8871 8.50314 55.3922 9.04365 55.0275 9.74696C54.6758 10.4372 54.5 11.2317 54.5 12.1304C54.5 13.0291 54.6758 13.8301 55.0275 14.5334C55.3922 15.2237 55.8871 15.7642 56.5122 16.1549C57.1374 16.5326 57.8212 16.7214 58.5636 16.7214Z" fill="#543F3A"/>
</g>
<g id="Group 1010">
<path id="Vector_11" d="M13.3879 12.1986C15.8013 9.78075 18.1731 7.40461 20.6195 4.95381C22.2468 6.64038 23.8763 8.32915 25.5035 10.0157C26.1031 9.38765 26.606 8.86499 27.1594 8.28523C25.5431 6.71066 23.8653 5.07459 22.1897 3.44292C25.7056 -0.360654 32.6385 -0.718611 36.6112 3.33531C36.5058 3.4517 36.4048 3.57688 36.2928 3.68888C33.517 6.46689 30.7477 9.2493 27.9609 12.0163C24.109 15.8375 17.892 16.0593 13.7546 12.539C13.6294 12.4336 13.5152 12.3172 13.3901 12.2008L13.3879 12.1986Z" fill="#543F3A"/>
<path id="Vector_12" d="M15.5708 32.0584C15.0174 32.6316 14.5123 33.1564 13.9963 33.6879C15.6301 35.3195 17.2904 36.9754 18.9506 38.6312C15.3293 42.3733 8.48635 42.65 4.52246 38.7147C4.57517 38.651 4.62568 38.5785 4.68717 38.5192C7.51789 35.6885 10.3332 32.8468 13.1837 30.0358C17.0839 26.1905 23.1692 25.9599 27.3417 29.4736C27.4801 29.59 27.6074 29.7152 27.7238 29.8206C25.3126 32.2187 22.921 34.597 20.4966 37.0083C18.8979 35.4008 17.2398 33.734 15.573 32.0606L15.5708 32.0584Z" fill="#543F3A"/>
<path id="Vector_13" d="M7.69939 27.7189C8.35601 27.093 8.88087 26.5923 9.46941 26.0301C7.79382 24.4182 6.11383 22.8019 4.458 21.2075C6.95712 18.7172 9.34423 16.3411 11.8346 13.8595C12.3528 14.6523 12.9809 15.4385 13.4267 16.3191C15.4932 20.4148 14.6719 25.3054 11.4239 28.5512C8.70957 31.2633 5.99744 33.9754 3.28311 36.6876C3.15574 36.8149 3.02178 36.9379 2.89221 37.0609C-0.744465 33.8107 -1.15952 26.6384 2.85707 22.758C4.48216 24.4248 6.10944 26.0938 7.69939 27.7232L7.69939 27.7189Z" fill="#543F3A"/>
<path id="Vector_14" d="M36.6641 20.8783C34.1847 23.3774 31.8174 25.7623 29.3951 28.2021C29.1536 27.9144 28.8988 27.6355 28.6726 27.3347C25.6091 23.3027 25.91 17.4304 29.4391 13.7982C32.2917 10.862 35.2191 8.00056 38.1157 5.10615C38.153 5.06882 38.2013 5.04027 38.2431 5.00953C41.6997 8.11256 42.4419 15.1004 38.276 19.341C36.6312 17.672 34.9841 16.0052 33.3327 14.3274C32.7419 14.9313 32.2346 15.4496 31.7537 15.9415C33.3854 17.582 35.0412 19.2444 36.6663 20.8761L36.6641 20.8783Z" fill="#543F3A"/>
<path id="Vector_15" d="M2.74986 19.2157C-1.06689 15.4428 -0.82313 8.50768 2.93872 4.93469C5.29509 7.31961 7.65146 9.70453 9.98148 12.0631C7.56582 14.4524 5.17211 16.8198 2.74986 19.2157Z" fill="#543F3A"/>
<path id="Vector_16" d="M11.6949 10.4645C9.29897 8.06643 6.92722 5.69029 4.55328 3.31635C8.09772 -0.419147 15.0944 -0.564087 18.8365 3.27902C16.4603 5.67053 14.0842 8.05984 11.6927 10.4645H11.6949Z" fill="#543F3A"/>
<g id="Group 1009">
<path id="Vector_17" d="M38.3927 22.7997C42.2094 26.5725 41.9656 33.5076 38.2038 37.0806C35.8474 34.6957 33.4911 32.3108 31.161 29.9522C33.5767 27.5629 35.9704 25.1956 38.3927 22.7997Z" fill="#543F3A"/>
<path id="Vector_18" d="M29.4477 31.5508C31.8436 33.9489 34.2154 36.325 36.5893 38.699C33.0449 42.4345 26.0482 42.5794 22.3061 38.7363C24.6823 36.3448 27.0584 33.9555 29.4499 31.5508L29.4477 31.5508Z" fill="#543F3A"/>
</g>
</g>
</g>
</svg>
