<svg width="64" height="64" viewBox="0 0 64 64" fill="none" xmlns="http://www.w3.org/2000/svg">
<rect width="64" height="64" rx="15" fill="#111111"/>
<g clip-path="url(#clip0_299_504)">
<path d="M46.3846 43.8447L41.1277 38.598L45.2595 34.4743L48.0699 37.2794L46.3846 43.8447ZM45.2595 29.5257L41.1277 25.402L46.3846 20.1554L48.0699 26.721L45.2595 29.5257ZM37.328 15.999L43.9058 17.6808L38.649 22.9279L34.5174 18.8042L37.328 15.999ZM29.5595 18.8043L25.4278 22.9279L20.1711 17.681L26.749 15.999L29.5595 18.8043ZM17.6917 20.1549L22.9489 25.4022L18.8174 29.5257L16.0064 26.7201L17.6917 20.1549ZM18.8174 34.474L22.9489 38.5976L17.6917 43.8447L16.0064 37.2795L18.8174 34.474ZM26.7488 48.001L20.1706 46.319L25.4278 41.0719L29.5594 45.1957L26.7488 48.001ZM36.1699 38.5978L32.0384 42.7215L27.9066 38.5978L32.0384 34.474L36.1699 38.5978ZM38.6489 27.8761L42.7805 32L38.6489 36.1236L34.5172 32L38.6489 27.8761ZM29.5594 32L25.4278 36.1236L21.2964 32L25.4278 27.8764L29.5594 32ZM27.9069 25.4022L32.0385 21.2785L36.1699 25.402L32.0384 29.5257L27.9069 25.4022ZM34.5172 45.1957L38.6489 41.0721L43.9056 46.319L37.3277 48.0007L34.5172 45.1957ZM48.8745 48.8039L52.0765 36.3298L47.7385 32L52.0762 27.67L48.8743 15.1957L36.3762 12L32.0385 16.33L27.6999 12.0001L15.2019 15.1961L12 27.6702L16.3385 32L12 36.33L15.2019 48.8041L27.7001 52L32.0384 47.6698L36.3764 51.9998L48.8745 48.8039Z" fill="white"/>
</g>
<defs>
<clipPath id="clip0_299_504">
<rect width="40.0909" height="40" fill="white" transform="translate(12 12)"/>
</clipPath>
</defs>
</svg>
