<svg width="64" height="64" viewBox="0 0 64 64" fill="none" xmlns="http://www.w3.org/2000/svg">
<rect width="64" height="64" rx="10" fill="#171717"/>
<g clip-path="url(#clip0_299_486)">
<path fill-rule="evenodd" clip-rule="evenodd" d="M15.2548 23.1291V41.6421C15.2925 42.3196 15.6385 42.9179 16.1627 43.2859L16.1729 43.2929L16.1832 43.2997L16.1935 43.3067L16.2038 43.3135L16.214 43.3204L16.2243 43.3273L16.2346 43.3341L16.2449 43.341L16.2551 43.3479L16.2654 43.3548L16.2757 43.3616L16.286 43.3686L16.2997 43.3754L16.31 43.3822L16.3202 43.3892L16.3305 43.396L16.3442 43.403L16.3545 43.4098L16.3648 43.4167L16.3785 43.4236L16.3888 43.4304L16.399 43.4373L16.4127 43.4441L16.423 43.4511L16.4367 43.4579L16.447 43.4649L16.4573 43.4717L16.471 43.4785L16.4812 43.4855L16.4949 43.4923L16.5052 43.4993L16.5189 43.5061L16.5292 43.513H16.5429L16.5566 43.5233H16.5669L16.5806 43.5336H16.5943L16.6046 43.5439H16.6183L16.632 43.5542H16.6423L16.656 43.5646H16.6697L16.6834 43.5748H16.6936L16.7073 43.5818H16.7211L16.7348 43.5886H16.7485L16.7622 43.5956H16.7724L16.7861 43.6024H16.7999L16.8136 43.6093H16.8273L16.8409 43.6161H16.8547L16.8684 43.623H16.8821L16.8958 43.6299H16.9095L16.9232 43.6367H16.9369L16.9506 43.6437H16.9643L16.978 43.6505H17.0054L17.0191 43.6575H17.0431L17.0568 43.6643H17.0842L17.0979 43.6711H17.1219L17.1356 43.6781H17.1767L17.1904 43.6849H17.2452L17.2589 43.6919H19.537V48.4034C19.537 49.5831 20.4894 50.5427 21.6645 50.5427C22.8395 50.5427 23.7919 49.5831 23.7919 48.4034V39.4169H19.537V23.1291H36.5597V14.1392C36.5597 12.9595 35.6074 12 34.4323 12C33.2573 12 32.3049 12.9595 32.3049 14.1392V18.8473H13.1274C11.9524 18.8473 11 19.8069 11 20.9865C11 22.1661 11.9524 23.1257 13.1274 23.1257H15.2548V23.1291ZM45.0453 23.1291V39.3929H28.0227V48.3794C28.0227 49.559 28.9751 50.5185 30.1501 50.5185C31.3252 50.5185 32.2775 49.559 32.2775 48.3794V43.6711H51.4311C52.6061 43.6711 53.5585 42.7117 53.5585 41.532C53.5585 40.3524 52.6061 39.3929 51.4311 39.3929H49.3037V20.9865C49.3037 19.9204 48.5259 19.0365 47.512 18.8749H47.488L47.4742 18.868H47.4332L47.4194 18.8611H47.3784L47.3646 18.8542H47.2961L47.2824 18.8473H45.0453V14.1392C45.0453 12.9595 44.093 12 42.9179 12C41.743 12 40.7905 12.9595 40.7905 14.1392V23.1257H45.0453V23.1291ZM25.8919 33.4019H38.6597C39.8348 33.4019 40.7871 32.4424 40.7871 31.2627C40.7871 30.0831 39.8348 29.1236 38.6597 29.1236H25.8953C24.7203 29.1236 23.7679 30.0831 23.7679 31.2627C23.7679 32.4424 24.7203 33.4019 25.8953 33.4019H25.8919Z" fill="#FF6F52"/>
</g>
<defs>
<clipPath id="clip0_299_486">
<rect width="42.963" height="40" fill="white" transform="translate(11 12)"/>
</clipPath>
</defs>
</svg>
