<svg width="64" height="64" viewBox="0 0 64 64" fill="none" xmlns="http://www.w3.org/2000/svg">
<rect width="64" height="64" rx="10" fill="#EBE9EF"/>
<path d="M37.3994 20.1611V27.8632L40.0938 29.5577C40.1911 29.5786 40.2918 29.5786 40.3891 29.5577L51.9738 21.7474C51.9653 21.3683 51.8267 21.0037 51.5811 20.7149C51.3355 20.426 50.998 20.2305 50.6252 20.1611H37.3994Z" fill="#0072C6"/>
<path d="M37.3996 30.7366L39.8563 32.4241C39.9713 32.4945 40.1034 32.5317 40.2381 32.5317C40.3729 32.5317 40.505 32.4945 40.6199 32.4241C40.198 32.6787 51.9726 24.8613 51.9726 24.8613V39.0166C52.0033 39.3035 51.971 39.5936 51.8778 39.8666C51.7847 40.1396 51.633 40.389 51.4335 40.5973C51.2339 40.8056 50.9912 40.9677 50.7224 41.0724C50.4536 41.1771 50.1652 41.2218 49.8773 41.2034H37.3982L37.3996 30.7366ZM24.6815 27.1859C24.2733 27.184 23.8723 27.2926 23.5207 27.5001C23.1692 27.7075 22.8803 28.0061 22.6846 28.3643C22.1503 29.314 21.894 30.3949 21.9449 31.4834C21.8894 32.5696 22.1461 33.649 22.6846 34.594C22.8794 34.9375 23.1612 35.2237 23.5016 35.4239C23.842 35.624 24.2291 35.731 24.624 35.7342C25.0189 35.7373 25.4077 35.6365 25.7513 35.4417C26.0949 35.247 26.3811 34.9653 26.5813 34.6249C27.115 33.6847 27.3665 32.6106 27.3056 31.5312C27.3665 30.418 27.1234 29.3092 26.6024 28.3235C26.4157 27.9773 26.1383 27.6885 25.7999 27.4881C25.4614 27.2876 25.0748 27.1832 24.6815 27.1859Z" fill="#0072C6"/>
<path d="M13.0273 16.2492V46.3809L35.9492 51.1875V11.8125L13.0273 16.2492ZM28.3667 36.4092C27.938 37.0138 27.3679 37.5043 26.7061 37.8379C26.0442 38.1715 25.3108 38.3381 24.5698 38.3231C23.8475 38.336 23.1328 38.1741 22.4864 37.8515C21.84 37.5288 21.2812 37.0547 20.8573 36.4697C19.8522 35.0662 19.3494 33.365 19.43 31.6406C19.3447 29.8317 19.8566 28.0449 20.8869 26.5556C21.3213 25.9399 21.9005 25.4403 22.5734 25.1009C23.2462 24.7616 23.9922 24.5928 24.7456 24.6094C25.4626 24.5955 26.1721 24.7575 26.812 25.0814C27.4518 25.4052 28.0026 25.881 28.4159 26.467C29.411 27.9009 29.9053 29.623 29.8222 31.3664C29.9102 33.1623 29.3981 34.9364 28.3667 36.4092Z" fill="#0072C6"/>
</svg>
