<svg width="64" height="64" viewBox="0 0 64 64" fill="none" xmlns="http://www.w3.org/2000/svg">
<rect width="64" height="64" rx="15" fill="#1C1C1C"/>
<path d="M43.7909 24.2325V18.9478C44.4893 18.6214 45.0806 18.1034 45.496 17.454C45.9114 16.8046 46.1339 16.0506 46.1374 15.2797V15.1584C46.1374 12.9108 44.3154 11.0888 42.0679 11.0888H41.9465C39.6989 11.0888 37.8768 12.9108 37.8768 15.1584V15.2797C37.8804 16.0506 38.1028 16.8046 38.5182 17.454C38.9336 18.1034 39.525 18.6214 40.2233 18.9478V24.2325C38.2161 24.5399 36.3258 25.3722 34.7437 26.6451L20.2501 15.356C20.3534 14.9829 20.4073 14.5993 20.4134 14.2142C20.4152 13.3072 20.1479 12.4201 19.6454 11.665C19.143 10.91 18.4278 10.3209 17.5905 9.97228C16.7532 9.6237 15.8313 9.53128 14.9414 9.7067C14.0516 9.88213 13.2338 10.3175 12.5914 10.9578C11.949 11.5981 11.511 12.4145 11.3326 13.3038C11.1543 14.1931 11.2438 15.1153 11.5896 15.9537C11.9355 16.7922 12.5223 17.5092 13.2757 18.0141C14.0291 18.5191 14.9154 18.7892 15.8224 18.7904C16.6158 18.7866 17.3944 18.5748 18.0804 18.176L32.3525 29.2819C29.7286 33.2457 29.7988 38.4117 32.5293 42.303L28.1884 46.645C27.8374 46.5329 27.472 46.4733 27.1036 46.4683C25.0247 46.47 23.3406 48.156 23.3411 50.2349C23.3416 52.3136 25.0268 53.9986 27.1056 53.9992C29.1844 53.9997 30.8704 52.3155 30.8722 50.2367C30.8673 49.8683 30.8076 49.5028 30.6952 49.152L34.9895 44.8561C38.8265 47.8099 44.0963 48.0645 48.2002 45.4941C52.3039 42.9236 54.3749 38.0708 53.3916 33.3295C52.4083 28.588 48.5785 24.9593 43.7909 24.2325ZM42.011 41.6136C41.2176 41.6349 40.4281 41.4971 39.6889 41.2082C38.9497 40.9194 38.2759 40.4854 37.7072 39.9318C37.1385 39.3782 36.6865 38.7163 36.3779 37.9851C36.0692 37.254 35.9102 36.4684 35.9102 35.6748C35.9102 34.8811 36.0692 34.0955 36.3779 33.3644C36.6865 32.6332 37.1385 31.9713 37.7072 31.4177C38.2759 30.8642 38.9497 30.4301 39.6889 30.1413C40.4281 29.8524 41.2176 29.7146 42.011 29.7359C45.208 29.8479 47.7424 32.4713 47.7442 35.6705C47.7456 38.8693 45.2139 41.4954 42.0169 41.6105" fill="#FF7A59"/>
</svg>
