<svg width="42" height="42" viewBox="0 0 42 42" fill="none" xmlns="http://www.w3.org/2000/svg">
<path d="M13.3879 12.1986C15.8013 9.78075 18.1731 7.40461 20.6195 4.95381C22.2468 6.64038 23.8763 8.32915 25.5035 10.0157C26.1031 9.38765 26.606 8.86499 27.1594 8.28523C25.5431 6.71066 23.8653 5.07459 22.1897 3.44292C25.7056 -0.360653 32.6385 -0.718611 36.6112 3.33531C36.5058 3.4517 36.4048 3.57688 36.2928 3.68888C33.517 6.46689 30.7477 9.2493 27.9609 12.0163C24.109 15.8375 17.892 16.0593 13.7546 12.539C13.6294 12.4336 13.5152 12.3172 13.3901 12.2008L13.3879 12.1986Z" fill="#543F3A"/>
<path d="M15.5708 32.0584C15.0174 32.6316 14.5123 33.1564 13.9963 33.6879C15.6301 35.3195 17.2904 36.9754 18.9506 38.6312C15.3293 42.3733 8.48635 42.65 4.52246 38.7147C4.57517 38.651 4.62568 38.5785 4.68717 38.5192C7.51789 35.6885 10.3332 32.8468 13.1837 30.0358C17.0839 26.1905 23.1692 25.9599 27.3417 29.4736C27.4801 29.59 27.6074 29.7152 27.7238 29.8206C25.3126 32.2187 22.921 34.597 20.4966 37.0083C18.8979 35.4008 17.2398 33.734 15.573 32.0606L15.5708 32.0584Z" fill="#543F3A"/>
<path d="M7.6994 27.7189C8.35602 27.093 8.88088 26.5923 9.46942 26.0301C7.79383 24.4182 6.11384 22.8019 4.45801 21.2075C6.95713 18.7172 9.34424 16.3411 11.8346 13.8595C12.3528 14.6523 12.9809 15.4385 13.4267 16.3191C15.4932 20.4148 14.6719 25.3054 11.4239 28.5512C8.70958 31.2633 5.99745 33.9754 3.28312 36.6876C3.15575 36.8149 3.02179 36.9379 2.89222 37.0609C-0.744454 33.8107 -1.15951 26.6384 2.85708 22.758C4.48217 24.4248 6.10945 26.0938 7.6994 27.7232V27.7189Z" fill="#543F3A"/>
<path d="M36.6641 20.8783C34.1847 23.3774 31.8174 25.7623 29.3951 28.2021C29.1536 27.9144 28.8988 27.6355 28.6726 27.3347C25.6091 23.3027 25.91 17.4304 29.4391 13.7982C32.2917 10.862 35.2191 8.00055 38.1157 5.10614C38.153 5.06881 38.2013 5.04026 38.2431 5.00952C41.6997 8.11255 42.4419 15.1004 38.276 19.341C36.6312 17.672 34.9841 16.0052 33.3327 14.3274C32.7419 14.9313 32.2346 15.4496 31.7537 15.9415C33.3854 17.582 35.0412 19.2444 36.6663 20.8761L36.6641 20.8783Z" fill="#543F3A"/>
<path d="M2.74986 19.2157C-1.06689 15.4428 -0.823131 8.50768 2.93872 4.93469C5.29509 7.31961 7.65146 9.70453 9.98148 12.0631C7.56582 14.4524 5.17211 16.8198 2.74986 19.2157Z" fill="#543F3A"/>
<path d="M11.6949 10.4645C9.29897 8.06642 6.92722 5.69028 4.55328 3.31634C8.09772 -0.419153 15.0944 -0.564093 18.8365 3.27901C16.4603 5.67052 14.0842 8.05983 11.6927 10.4645H11.6949Z" fill="#543F3A"/>
<path d="M38.3927 22.7997C42.2094 26.5725 41.9656 33.5076 38.2038 37.0806C35.8474 34.6957 33.4911 32.3108 31.161 29.9522C33.5767 27.5629 35.9704 25.1956 38.3927 22.7997Z" fill="#543F3A"/>
<path d="M29.4477 31.5508C31.8436 33.9489 34.2154 36.325 36.5893 38.699C33.0449 42.4345 26.0482 42.5794 22.3061 38.7363C24.6823 36.3448 27.0584 33.9555 29.4499 31.5508H29.4477Z" fill="#543F3A"/>
</svg>
