<svg width="64" height="64" viewBox="0 0 64 64" fill="none" xmlns="http://www.w3.org/2000/svg">
<g clip-path="url(#clip0_299_392)">
<rect width="64" height="64" rx="10" fill="#5865F2"/>
<g clip-path="url(#clip1_299_392)">
<path d="M49 0H15C6.71573 0 0 6.71573 0 15V49C0 57.2843 6.71573 64 15 64H49C57.2843 64 64 57.2843 64 49V15C64 6.71573 57.2843 0 49 0Z" fill="#5865F2"/>
<mask id="mask0_299_392" style="mask-type:luminance" maskUnits="userSpaceOnUse" x="7" y="12" width="50" height="40">
<path d="M7 12.75H57V51.4825H7V12.75Z" fill="white"/>
</mask>
<g mask="url(#mask0_299_392)">
<path d="M49.3268 16.1993C46.0852 14.7115 42.6642 13.6504 39.1496 13.0426C39.1177 13.0367 39.0847 13.0411 39.0554 13.055C39.026 13.0689 39.0018 13.0916 38.9861 13.1201C38.5466 13.9016 38.0596 14.9216 37.7188 15.7231C33.8756 15.1476 30.0523 15.1476 26.2881 15.7231C25.9471 14.9036 25.4426 13.9016 25.0011 13.1201C24.9848 13.0921 24.9605 13.0697 24.9312 13.0559C24.902 13.0421 24.8693 13.0374 24.8373 13.0426C21.3224 13.649 17.9013 14.7102 14.6601 16.1993C14.6325 16.2113 14.6092 16.2314 14.5931 16.2568C8.1111 25.9408 6.3356 35.3868 7.2066 44.7158C7.21191 44.7619 7.23528 44.804 7.2716 44.8328C11.5481 47.9736 15.6908 49.8803 19.7566 51.1441C19.7882 51.1534 19.822 51.1529 19.8533 51.1427C19.8847 51.1324 19.9121 51.1128 19.9321 51.0866C20.8938 49.7731 21.7511 48.3883 22.4863 46.9321C22.4965 46.9121 22.5023 46.8902 22.5033 46.8679C22.5044 46.8456 22.5007 46.8232 22.4925 46.8024C22.4843 46.7816 22.4718 46.7628 22.4558 46.7472C22.4397 46.7315 22.4206 46.7195 22.3996 46.7118C21.0396 46.1958 19.7448 45.5671 18.4993 44.8528C18.4767 44.8394 18.4576 44.8207 18.4439 44.7982C18.4301 44.7758 18.4221 44.7503 18.4206 44.724C18.419 44.6977 18.424 44.6715 18.435 44.6475C18.4459 44.6236 18.4626 44.6028 18.4836 44.5868C18.7464 44.3904 19.0046 44.188 19.2581 43.9798C19.2803 43.9615 19.3072 43.9498 19.3357 43.9459C19.3642 43.942 19.3933 43.9461 19.4196 43.9578C27.6026 47.6938 36.4613 47.6938 44.5476 43.9578C44.574 43.9454 44.6034 43.9407 44.6324 43.9442C44.6613 43.9478 44.6887 43.9594 44.7113 43.9778C44.9651 44.1872 45.224 44.3902 45.4878 44.5868C45.5089 44.6026 45.5257 44.6233 45.5369 44.6472C45.548 44.671 45.5532 44.6972 45.5518 44.7235C45.5504 44.7497 45.5426 44.7753 45.5291 44.7978C45.5155 44.8204 45.4967 44.8393 45.4741 44.8528C44.2279 45.5805 42.9225 46.2017 41.5718 46.7098C41.5509 46.7179 41.5319 46.7303 41.5161 46.7462C41.5003 46.7621 41.488 46.7811 41.48 46.8021C41.472 46.823 41.4685 46.8454 41.4697 46.8678C41.4709 46.8902 41.4769 46.9121 41.4871 46.9321C42.235 48.3768 43.088 49.7647 44.0391 51.0846C44.0586 51.1115 44.0859 51.1316 44.1174 51.1423C44.1488 51.153 44.1828 51.1536 44.2146 51.1441C48.3001 49.8803 52.4428 47.9736 56.7196 44.8328C56.7379 44.8193 56.7531 44.802 56.7643 44.7822C56.7755 44.7624 56.7824 44.7405 56.7846 44.7178C57.8271 33.9326 55.0383 24.5638 49.3918 16.2588C49.3781 16.2317 49.355 16.2106 49.3268 16.1993ZM23.7083 39.0356C21.2446 39.0356 19.2146 36.7738 19.2146 33.9961C19.2146 31.2183 21.2053 28.9566 23.7083 28.9566C26.2308 28.9566 28.2411 31.2383 28.2016 33.9961C28.2016 36.7738 26.2111 39.0356 23.7083 39.0356ZM40.3223 39.0356C37.8586 39.0356 35.8288 36.7738 35.8288 33.9961C35.8288 31.2183 37.8193 28.9566 40.3223 28.9566C42.8448 28.9566 44.8551 31.2383 44.8158 33.9961C44.8158 36.7738 42.8448 39.0356 40.3223 39.0356Z" fill="white"/>
</g>
</g>
</g>
<defs>
<clipPath id="clip0_299_392">
<rect width="64" height="64" rx="10" fill="white"/>
</clipPath>
<clipPath id="clip1_299_392">
<rect width="64" height="64" fill="white"/>
</clipPath>
</defs>
</svg>
