<svg width="64" height="64" viewBox="0 0 64 64" fill="none" xmlns="http://www.w3.org/2000/svg">
<g clip-path="url(#clip0_297_154)">
<rect width="64" height="64" rx="10" fill="#285522"/>
<g clip-path="url(#clip1_297_154)">
<mask id="mask0_297_154" style="mask-type:luminance" maskUnits="userSpaceOnUse" x="10" y="10" width="44" height="44">
<path d="M53.9331 10.0664H10.1831V53.8164H53.9331V10.0664Z" fill="white"/>
</mask>
<g mask="url(#mask0_297_154)">
<path d="M41.9771 50.1116C41.9771 48.1211 43.5252 46.4072 45.6813 46.4072C47.8928 46.4072 49.4409 48.1211 49.4409 50.1116C49.4409 52.1023 47.8928 53.8159 45.7366 53.8159C43.5252 53.8159 41.9771 52.1023 41.9771 50.1116Z" fill="#B3D334"/>
<path d="M21.9562 18.6566C21.9562 15.6845 24.7621 13.3102 28.3612 13.3102C33.0584 13.3102 35.813 15.5065 37.3994 26.731H38.3754L39.8392 11.4192C29.4689 7.75909 16.4753 11.5412 16.2923 22.5829C16.2923 34.4784 35.2386 34.4719 35.2386 45.337C35.2386 48.5091 32.4323 50.7053 29.2605 50.7053C20.8974 50.7053 18.9152 43.6897 18.4884 36.3694H17.451L14.7061 50.1562C14.7061 50.1562 20.9284 53.8164 27.6388 53.8164C35.6912 53.6945 41.0595 47.7772 41.1813 41.5549C41.1813 29.5982 21.9562 27.136 21.9562 18.6566Z" fill="white"/>
</g>
</g>
</g>
<defs>
<clipPath id="clip0_297_154">
<rect width="64" height="64" rx="10" fill="white"/>
</clipPath>
<clipPath id="clip1_297_154">
<rect x="-10" y="-10" width="84" height="84" rx="42" fill="white"/>
</clipPath>
</defs>
</svg>
