<svg width="64" height="64" viewBox="0 0 64 64" fill="none" xmlns="http://www.w3.org/2000/svg">
<g clip-path="url(#clip0_298_310)">
<rect width="64" height="64" rx="15" fill="#D4ECD0"/>
<g clip-path="url(#clip1_298_310)">
<path d="M52.4444 0H11.5556C5.1736 0 0 5.1736 0 11.5556V52.4444C0 58.8264 5.1736 64 11.5556 64H52.4444C58.8264 64 64 58.8264 64 52.4444V11.5556C64 5.1736 58.8264 0 52.4444 0Z" fill="#262834"/>
<mask id="mask0_298_310" style="mask-type:luminance" maskUnits="userSpaceOnUse" x="12" y="12" width="40" height="40">
<path d="M52 12H12V52H52V12Z" fill="white"/>
</mask>
<g mask="url(#mask0_298_310)">
<path d="M51.6243 49.894L44.094 42.3628C43.8562 42.1297 43.5366 41.999 43.2035 41.999C42.8703 41.999 42.5506 42.1297 42.3128 42.3628L34.7827 49.894C34.6028 50.0653 34.4797 50.2872 34.4293 50.53C34.3788 50.773 34.4036 51.0255 34.5004 51.254C34.5968 51.4826 34.7607 51.6764 34.9701 51.8094C35.1797 51.9424 35.4247 52.0086 35.6726 51.999H50.7343C50.9807 52.0053 51.2235 51.937 51.4308 51.8034C51.6379 51.6697 51.8001 51.4767 51.8962 51.2497C51.9922 51.0226 52.0176 50.7717 51.9691 50.5299C51.9205 50.2882 51.8005 50.0666 51.6243 49.894Z" fill="#C3C6CC"/>
<path d="M51.8748 22.8445L49.5161 15.8419C49.4097 15.5253 49.2401 15.2335 49.0174 14.9844L12.2861 51.7135C12.5017 51.9064 12.7833 52.0089 13.0724 51.9997H23.5052C23.7968 52.001 24.0858 51.945 24.3556 51.8346C24.6255 51.7241 24.8709 51.5614 25.0778 51.356L51.3748 25.0595C51.6607 24.7764 51.8596 24.4174 51.9482 24.025C52.0367 23.6326 52.0114 23.223 51.8748 22.8445Z" fill="#E1E3E6"/>
<path d="M48.1594 14.4827L41.1565 12.1251C40.7782 11.9886 40.3686 11.9632 39.976 12.0518C39.5836 12.1404 39.2247 12.3393 38.9415 12.6251L12.6431 38.9214C12.2295 39.34 11.9984 39.9054 12.0006 40.494V50.9267C11.9914 51.2158 12.0939 51.4973 12.2869 51.7129L49.0182 14.9839C48.7686 14.7605 48.4765 14.59 48.1594 14.4827Z" fill="#C3C6CC"/>
</g>
</g>
</g>
<defs>
<clipPath id="clip0_298_310">
<rect width="64" height="64" rx="15" fill="white"/>
</clipPath>
<clipPath id="clip1_298_310">
<rect width="64" height="64" fill="white"/>
</clipPath>
</defs>
</svg>
